# xmcd
#
# Track frame offsets: 
#        150
#        20963
#        38326
#        53764
#        66964
#        80439
#        102276
#        111739
#        128944
#        143014
#        163409
#        185311
#        206225
#        221274
#        238829
#        253140
#        274097
#
# Disc length: 3816 seconds
#
# Revision: 1
# Processed by: cddbd v1.5.2PL0 Copyright (c) Steve Scherf et al.
# Submitted via: ExactAudioCopy v0.95b4
#
DISCID=050ee611
DTITLE=Various Artist - Black and White Blues CD1
DYEAR=1900
DGENRE=
TTITLE0=Alvin Lee- Real Life Blues
TTITLE1=John Davis- Everyday I Have The Blues
TTITLE2=Abi Wallenstein- Blues Harp Boogie
TTITLE3=Peter Chatman- Jasper's Gal
TTITLE4=Leadbelly- Packin' Trunk
TTITLE5=Harvey Mandel- Long Grey Mare
TTITLE6=Lightnin Hopkins- Can't Do Like You Used To
TTITLE7=Canned Heat- Creole Queen
TTITLE8=Muddy Waters- I Be's Troubled
TTITLE9=Art Hodes- Mojo Blues
TTITLE10=Robert Gordon- Prove It
TTITLE11=Dave Peverett- If You Be My Baby
TTITLE12=Hot Lips Page- The Blues Jumped The Rabbit
TTITLE13=Mick Jagger and Chris Jagger- Racketeer Blues
TTITLE14=T-Bone Walker- I Can't Stand Being Away From You
TTITLE15=Savoy Brown- Shake For Me
TTITLE16=Big Joe Turner- Rebecca
EXTD=
EXTT0=
EXTT1=
EXTT2=
EXTT3=
EXTT4=
EXTT5=
EXTT6=
EXTT7=
EXTT8=
EXTT9=
EXTT10=
EXTT11=
EXTT12=
EXTT13=
EXTT14=
EXTT15=
EXTT16=
PLAYORDER=
